<svg width="24" height="24" viewBox="0 0 24 24" fill="none" xmlns="http://www.w3.org/2000/svg">
<path d="M12 15C13.6569 15 15 13.6569 15 12C15 10.3431 13.6569 9 12 9C10.3431 9 9 10.3431 9 12C9 13.6569 10.3431 15 12 15Z" stroke="black" stroke-width="2" stroke-linecap="round" stroke-linejoin="round"/>
<path d="M19 6H5C3.89543 6 3 6.89543 3 8V16C3 17.1046 3.89543 18 5 18H19C20.1046 18 21 17.1046 21 16V8C21 6.89543 20.1046 6 19 6Z" stroke="black" stroke-width="2" stroke-linecap="round" stroke-linejoin="round"/>
<path d="M18 12H18.01" stroke="black" stroke-width="2" stroke-linecap="round" stroke-linejoin="round"/>
<path d="M6 12H6.01" stroke="black" stroke-width="2" stroke-linecap="round" stroke-linejoin="round"/>
</svg>
