<svg width="24" height="24" viewBox="0 0 24 24" fill="none" xmlns="http://www.w3.org/2000/svg">
<path d="M12 3C14.3358 5.06658 17.3845 6.14257 20.5 6C20.9536 7.54302 21.0924 9.16147 20.9081 10.7592C20.7239 12.3569 20.2203 13.9013 19.4274 15.3005C18.6345 16.6998 17.5684 17.9254 16.2925 18.9045C15.0165 19.8836 13.5568 20.5962 12 21C10.4432 20.5962 8.9835 19.8836 7.70756 18.9045C6.43163 17.9254 5.36553 16.6998 4.57261 15.3005C3.7797 13.9013 3.27615 12.3569 3.09189 10.7592C2.90763 9.16147 3.04642 7.54302 3.50002 6C6.61555 6.14257 9.66419 5.06658 12 3" stroke="black" stroke-width="2" stroke-linecap="round" stroke-linejoin="round"/>
</svg>
