<svg width="24" height="24" viewBox="0 0 24 24" fill="none" xmlns="http://www.w3.org/2000/svg">
<path d="M19.5 13.5719L12 20.9999L4.5 13.5719C4.0053 13.0905 3.61564 12.5119 3.35554 11.8726C3.09545 11.2332 2.97056 10.5469 2.98873 9.85687C3.00691 9.16685 3.16776 8.48807 3.46115 7.86327C3.75455 7.23847 4.17413 6.68119 4.69348 6.22651C5.21283 5.77184 5.8207 5.42962 6.47881 5.22141C7.13691 5.01321 7.831 4.94352 8.51736 5.01673C9.20373 5.08995 9.8675 5.30449 10.4669 5.64684C11.0662 5.98919 11.5882 6.45193 12 7.00593C12.4135 6.45595 12.9361 5.99725 13.5351 5.65854C14.1341 5.31982 14.7965 5.10838 15.4809 5.03745C16.1654 4.96652 16.8571 5.03763 17.5128 5.24632C18.1685 5.45502 18.774 5.79681 19.2915 6.2503C19.8091 6.70379 20.2274 7.25922 20.5204 7.88182C20.8134 8.50443 20.9747 9.18082 20.9943 9.86864C21.0139 10.5565 20.8913 11.2409 20.6341 11.8792C20.377 12.5174 19.9909 13.0958 19.5 13.5779" stroke="black" stroke-width="2" stroke-linecap="round" stroke-linejoin="round"/>
</svg>
