<svg width="28" height="28" viewBox="0 0 28 28" fill="none" xmlns="http://www.w3.org/2000/svg">
<path d="M22.1667 10.162L15.9449 5.32263C15.3989 4.89786 14.7268 4.66724 14.0351 4.66724C13.3433 4.66724 12.6712 4.89786 12.1252 5.32263L5.90222 10.162C5.52824 10.4528 5.22566 10.8252 5.0176 11.2509C4.80954 11.6765 4.7015 12.144 4.70172 12.6178V21.0178C4.70172 21.6366 4.94755 22.2301 5.38514 22.6677C5.82272 23.1053 6.41622 23.3511 7.03505 23.3511H21.0351C21.6539 23.3511 22.2474 23.1053 22.685 22.6677C23.1226 22.2301 23.3684 21.6366 23.3684 21.0178V12.6178C23.3684 11.6576 22.9251 10.7511 22.1667 10.162Z" stroke="black" stroke-width="2.5" stroke-linecap="round" stroke-linejoin="round"/>
</svg>
