<svg width="32" height="32" viewBox="0 0 32 32" fill="none" xmlns="http://www.w3.org/2000/svg">
<path d="M16 18.6665C18.2091 18.6665 20 16.8756 20 14.6665C20 12.4574 18.2091 10.6665 16 10.6665C13.7909 10.6665 12 12.4574 12 14.6665C12 16.8756 13.7909 18.6665 16 18.6665Z" stroke="black" stroke-width="3" stroke-linecap="round" stroke-linejoin="round"/>
<path d="M23.5427 22.2092L17.8854 27.8665C17.3854 28.366 16.7075 28.6466 16.0007 28.6466C15.2939 28.6466 14.6161 28.366 14.116 27.8665L8.45738 22.2092C6.96567 20.7174 5.94983 18.8168 5.5383 16.7477C5.12676 14.6786 5.33803 12.5339 6.14538 10.5848C6.95273 8.63578 8.31991 6.96991 10.074 5.79786C11.8281 4.62582 13.8904 4.00024 16 4.00024C18.1097 4.00024 20.172 4.62582 21.9261 5.79786C23.6802 6.96991 25.0474 8.63578 25.8547 10.5848C26.6621 12.5339 26.8733 14.6786 26.4618 16.7477C26.0503 18.8168 25.0344 20.7174 23.5427 22.2092V22.2092Z" stroke="black" stroke-width="3" stroke-linecap="round" stroke-linejoin="round"/>
</svg>
