<svg width="37" height="37" viewBox="0 0 37 37" fill="none" xmlns="http://www.w3.org/2000/svg">
<mask id="path-1-inside-1" fill="white">
<path fill-rule="evenodd" clip-rule="evenodd" d="M35 18.5V19.1598H34.987C34.6407 27.9666 27.3917 35 18.5 35C9.60829 35 2.35931 27.9666 2.01295 19.1598H2V18.5V5.95984H7.77599C10.6601 3.49109 14.4059 2 18.5 2C22.5941 2 26.3399 3.49109 29.224 5.95984H35V18.5Z"/>
</mask>
<path fill-rule="evenodd" clip-rule="evenodd" d="M35 18.5V19.1598H34.987C34.6407 27.9666 27.3917 35 18.5 35C9.60829 35 2.35931 27.9666 2.01295 19.1598H2V18.5V5.95984H7.77599C10.6601 3.49109 14.4059 2 18.5 2C22.5941 2 26.3399 3.49109 29.224 5.95984H35V18.5Z" fill="#413F4B"/>
<path d="M35 19.1598V20.5348H36.375V19.1598H35ZM34.987 19.1598V17.7848H33.6651L33.6131 19.1058L34.987 19.1598ZM2.01295 19.1598L3.38689 19.1058L3.33494 17.7848H2.01295V19.1598ZM2 19.1598H0.625V20.5348H2V19.1598ZM2 5.95984V4.58484H0.625V5.95984H2ZM7.77599 5.95984V7.33484H8.28411L8.67013 7.00442L7.77599 5.95984ZM29.224 5.95984L28.3299 7.00442L28.7159 7.33484H29.224V5.95984ZM35 5.95984H36.375V4.58484H35V5.95984ZM33.625 18.5V19.1598H36.375V18.5H33.625ZM35 17.7848H34.987V20.5348H35V17.7848ZM33.6131 19.1058C33.2957 27.1777 26.6504 33.625 18.5 33.625V36.375C28.133 36.375 35.9857 28.7556 36.361 19.2139L33.6131 19.1058ZM18.5 33.625C10.3496 33.625 3.70434 27.1777 3.38689 19.1058L0.639014 19.2139C1.01427 28.7556 8.86699 36.375 18.5 36.375V33.625ZM2.01295 17.7848H2V20.5348H2.01295V17.7848ZM3.375 19.1598V18.5H0.625V19.1598H3.375ZM3.375 18.5V5.95984H0.625V18.5H3.375ZM2 7.33484H7.77599V4.58484H2V7.33484ZM8.67013 7.00442C11.3145 4.74084 14.746 3.375 18.5 3.375V0.625C14.0658 0.625 10.0057 2.24135 6.88185 4.91526L8.67013 7.00442ZM18.5 3.375C22.254 3.375 25.6855 4.74084 28.3299 7.00442L30.1182 4.91526C26.9943 2.24135 22.9342 0.625 18.5 0.625V3.375ZM29.224 7.33484H35V4.58484H29.224V7.33484ZM33.625 5.95984V18.5H36.375V5.95984H33.625Z" fill="#413F4B" mask="url(#path-1-inside-1)"/>
<path d="M5.58181 17.8834C6.33573 18.6301 9.13598 20.9634 10.9131 21.8434C10.2466 23.1633 7.54193 26.2175 6.9146 25.8033C4.91535 24.4833 4.91539 17.2233 5.58181 17.8834Z" fill="white" stroke="#413F4B"/>
<path d="M31.4542 17.8822C30.7003 18.6289 27.9 20.9622 26.1229 21.8422C26.7894 23.1621 29.4941 26.2163 30.1214 25.8021C32.1207 24.4821 32.1206 17.2221 31.4542 17.8822Z" fill="white" stroke="#413F4B"/>
</svg>
