<svg width="24" height="24" viewBox="0 0 24 24" fill="none" xmlns="http://www.w3.org/2000/svg">
<path d="M5.37384 11.7256H20.0907M5.37384 11.7256L3.03257 18.7494C2.99787 18.8428 2.99072 18.9442 3.01196 19.0416C3.03321 19.1389 3.08195 19.2281 3.1524 19.2985C3.22285 19.369 3.31205 19.4177 3.40939 19.439C3.50673 19.4602 3.60812 19.4531 3.70152 19.4184L20.0907 11.7256M5.37384 11.7256L3.03257 4.70152C2.99787 4.60812 2.99072 4.50673 3.01196 4.40939C3.0332 4.31205 3.08195 4.22285 3.1524 4.1524C3.22285 4.08195 3.31205 4.0332 3.40939 4.01196C3.50673 3.99072 3.60812 3.99787 3.70152 4.03257L20.0907 11.7256" stroke="black" stroke-width="1.89207" stroke-linecap="round" stroke-linejoin="round"/>
</svg>
