<svg width="24" height="24" viewBox="0 0 24 24" fill="none" xmlns="http://www.w3.org/2000/svg">
<path d="M19 8.71026L13.667 4.56226C13.199 4.19817 12.623 4.00049 12.03 4.00049C11.4371 4.00049 10.861 4.19817 10.393 4.56226L5.05903 8.71026C4.73847 8.95954 4.47912 9.27878 4.30078 9.64361C4.12245 10.0084 4.02984 10.4092 4.03003 10.8153V18.0153C4.03003 18.5457 4.24074 19.0544 4.61582 19.4295C4.99089 19.8045 5.4996 20.0153 6.03003 20.0153H18.03C18.5605 20.0153 19.0692 19.8045 19.4442 19.4295C19.8193 19.0544 20.03 18.5457 20.03 18.0153V10.8153C20.03 9.99226 19.65 9.21526 19 8.71026Z" stroke="black" stroke-width="2" stroke-linecap="round" stroke-linejoin="round"/>
</svg>
