<svg width="24" height="24" viewBox="0 0 24 24" fill="none" xmlns="http://www.w3.org/2000/svg">
<path d="M8 16V12C8 10.9391 8.42143 9.92172 9.17157 9.17157C9.92172 8.42143 10.9391 8 12 8C13.0609 8 14.0783 8.42143 14.8284 9.17157C15.5786 9.92172 16 10.9391 16 12V16" stroke="black" stroke-width="2" stroke-linecap="round" stroke-linejoin="round"/>
<path d="M18.4 5.6L17.7 6.3M3 12H4H3ZM12 3V4V3ZM20 12H21H20ZM5.6 5.6L6.3 6.3L5.6 5.6Z" stroke="black" stroke-width="2" stroke-linecap="round" stroke-linejoin="round"/>
<path d="M17 16H7C6.44772 16 6 16.4477 6 17V19C6 19.5523 6.44772 20 7 20H17C17.5523 20 18 19.5523 18 19V17C18 16.4477 17.5523 16 17 16Z" stroke="black" stroke-width="2" stroke-linecap="round" stroke-linejoin="round"/>
</svg>
